<svg xmlns="http://www.w3.org/2000/svg" viewBox="50.1 67.3 168.2 113.6"><g fill="#fbcb46"><path d="m188.133 94.707.225.217c-.124 1.121-6.544 9.072-7.792 10.547-22.698 26.833-59.973 59.291-97.922 46.748-13.008-4.3-20.1-15.587-25.4-27.293-1.685-3.515-5.987-7.3-6.168-9.922 1.114-2.913 9-1.471 11.74-1.667 2.974.297 1.523 5.558 2.19 6.998 11.04 23.841 42.874 18.177 62.788 10.472 14.646-5.666 30.526-14.66 43.679-23.692 5.514-3.787 11.102-8.25 16.66-12.408"/><path d="m192.764 100.09c2.959-.224 7.039-.121 10.067-.129 3.122-.008 7.428-.126 10.416.192.072 1.542.043 3.138.063 4.686.208 16.047-.32 32.213.049 48.248-2.24 2.165-4.829 3.512-7.514 5.061a114 114 0 0 1-13.035 6.78c-.47-13.369-.111-28.318-.13-41.814l-.045-14.338c-.014-2.414-.153-6.426.129-8.686"/><path d="m59.286 135.229c.476.569 2.801 5.073 3.329 6.006 13.942 24.661 46.792 22.41 69.764 14.673-.272 5.549.004 13.43.039 19.154.012 1.488-.087 2.502-.246 3.985-3.508.79-12.968.836-16.699.617-16.445-.967-33.696-5.718-45.077-18.331-5.453-6.043-11.529-18.111-11.11-26.104"/><path d="m166.455 125.809c2.744-.153 17.754-.516 19.66.344.635 2.365.487 14.952.43 17.984-.138 7.299.223 15.683-.094 22.896-1.777 1.34-3.11 1.8-5.187 2.567-3.068 1.3-12.155 3.873-15.487 4.662a1979 1979 0 0 1-.103-30.335c-.008-5.434-.1-11.167.127-16.61.026-.626.255-1.036.654-1.508"/><path d="m141.518 146.105c3.403-.178 14.783-.284 17.849.289.205 3.263.424 26.517-.269 28.515-1.07 1.352-2.696 1.454-4.397 1.811-5.066.972-10.887 1.683-16.004 2.209-.249-2.37-.285-31.078.396-32.038.729-.604 1.493-.638 2.425-.786"/><path d="m211.281 68.299c6.031 1.05-1.813 7.962-3.656 9.822l.034.282q.116.886.135 1.777c.061 3.829.188 9.212-.575 12.836-1.597-1.956-4.601-7.44-5.895-9.833-1.978 1.523-4.223 3.097-6.25 4.606.011 2.345-.227 4.169-.499 6.488-.957-1.293-2.079-3.57-2.863-5.053-.285-.642-5.103-3.974-6.219-4.93 2.345-.228 3.999-.37 6.363-.37 1.705-1.522 3.425-3.16 5.104-4.72-2.657-1.355-7.623-4.503-9.937-6.282 2.946.05 13.492.228 15.862.626 2.421-1.794 5.539-4.68 8.396-5.25"/></g></svg>
